<svg xmlns="http://www.w3.org/2000/svg" width="41" height="41.47" viewBox="0 0 41 41.47">
  <defs>
    <style>
      .cls-1 {
        fill: #fff;
        fill-rule: evenodd;
      }
    </style>
  </defs>
  <path id="Shape_6_copy_2" data-name="Shape 6 copy 2" class="cls-1" d="M2728.68,6520.76h-18.36A11.4,11.4,0,0,0,2699,6532.2v18.59a11.4,11.4,0,0,0,11.32,11.44h18.36a11.4,11.4,0,0,0,11.32-11.44V6532.2A11.4,11.4,0,0,0,2728.68,6520.76Zm7.68,30.02v0.01a7.723,7.723,0,0,1-7.67,7.76h-18.37a7.725,7.725,0,0,1-7.68-7.76V6532.2a7.734,7.734,0,0,1,7.68-7.77h18.36a7.734,7.734,0,0,1,7.68,7.77v18.58Zm-5.85-23.09h0a2.689,2.689,0,0,0-2.67,2.7,2.738,2.738,0,0,0,.78,1.9,2.656,2.656,0,0,0,3.77.01,2.754,2.754,0,0,0,.78-1.91,2.7,2.7,0,0,0-.78-1.91A2.634,2.634,0,0,0,2730.51,6527.69Zm-11.01,3.12a10.686,10.686,0,1,0,10.56,10.69A10.642,10.642,0,0,0,2719.5,6530.81Zm0,17.69a7.005,7.005,0,1,1,6.93-7A6.972,6.972,0,0,1,2719.5,6548.5Z" transform="translate(-2699 -6520.75)"/>
</svg>
