<svg xmlns="http://www.w3.org/2000/svg" width="31.72" height="31.75" viewBox="0 0 31.72 31.75">
  <defs>
    <style>
      .cls-1 {
        fill: #26333c;
        fill-rule: evenodd;
      }
    </style>
  </defs>
  <path id="Shape_6_copy_2" data-name="Shape 6 copy 2" class="cls-1" d="M2803.13,202.538H2788.9a8.778,8.778,0,0,0-8.76,8.764v14.23a8.779,8.779,0,0,0,8.76,8.765h14.23a8.78,8.78,0,0,0,8.76-8.765V211.3A8.778,8.778,0,0,0,2803.13,202.538Zm5.94,22.993h0a5.948,5.948,0,0,1-5.94,5.947H2788.9a5.946,5.946,0,0,1-5.94-5.947V211.3a5.95,5.95,0,0,1,5.94-5.95h14.23a5.948,5.948,0,0,1,5.94,5.948v14.231Zm-4.53-17.683v0a2.079,2.079,0,0,0-2.07,2.067,2.1,2.1,0,0,0,.61,1.459,2.067,2.067,0,0,0,1.46.6,2.055,2.055,0,0,0,2.06-2.064A2.052,2.052,0,0,0,2804.54,207.848Zm-8.53,2.387a8.184,8.184,0,1,0,8.19,8.183A8.183,8.183,0,0,0,2796.01,210.235Zm0,13.547a5.365,5.365,0,1,1,5.37-5.364A5.371,5.371,0,0,1,2796.01,223.782Z" transform="translate(-2780.16 -202.531)"/>
</svg>
