<svg xmlns="http://www.w3.org/2000/svg" width="297" height="39.531" viewBox="0 0 297 39.531">
  <defs>
    <style>
      .cls-1 {
        fill: #26333c;
        fill-rule: evenodd;
      }
    </style>
  </defs>
  <path class="cls-1" d="M820.829,258.247H793.653q-11.645,0-11.644-11.66V231.042q0-11.67,11.644-11.655h27.176v7.765H793.653c-2.582,0-3.886,1.3-3.886,3.89v15.545c0,2.588,1.3,3.885,3.886,3.885h27.176v7.775Zm43.363-31.1H848.663v31.1h-7.772v-31.1h-15.53v-7.765h38.831v7.765Zm43.344,31.1h-7.762v-7.775h-23.3v7.775h-7.763V230.394q0-11.663,11.649-11.66h15.525q11.658,0,11.648,11.66v27.853ZM899.774,242.7V230.394c0-2.583-1.292-3.89-3.886-3.89H880.363c-2.584,0-3.886,1.307-3.886,3.89V242.7h23.3ZM950.9,258.247h-7.767v-31.1H931.489c-1.9,0-3.207,1.3-3.886,3.89l-7.632,27.205h-7.9q7.189-23.318,7.772-27.205,3.406-11.67,11.649-11.655H950.9v38.86Zm43.349,0h-9.9L971.926,242.7h-8.741v15.545h-7.763v-38.86h7.763v15.54h8.741l12.424-15.54h9.9l-15.53,19.425Zm41.421-31.1H1004.6v7.775h23.3V242.7h-23.3v7.77h31.07v7.775H996.833v-38.86h38.837v7.765Zm43.34,3.89v3.885c0,7.775-3.87,11.66-11.65,11.66h-19.41v11.66h-7.76v-38.86h27.17C1075.14,219.387,1079.01,223.262,1079.01,231.042Zm-7.76,0c0-2.588-1.29-3.89-3.89-3.89h-19.41v11.66h19.41c2.6,0,3.89-1.287,3.89-3.885v-3.885Z" transform="translate(-782 -218.719)"/>
</svg>
