<svg xmlns="http://www.w3.org/2000/svg" width="60" height="60" viewBox="0 0 60 60">
  <defs>
    <style>
      .cls-1 {
        fill: #fff;
        fill-rule: evenodd;
      }
    </style>
  </defs>
  <path id="Фигура_96" data-name="Фигура 96" class="cls-1" d="M1990.67,6545.54a1,1,0,0,1-.69-0.27l-5.79-5.43a1.008,1.008,0,0,1,1.38-1.47l5.79,5.43a1.021,1.021,0,0,1,.04,1.43A0.991,0.991,0,0,1,1990.67,6545.54Zm-19.33,0a1,1,0,0,1-.68-1.74l5.79-5.43a1,1,0,1,1,1.37,1.47l-5.79,5.43A1,1,0,0,1,1971.34,6545.54Zm22.53,5.06h-25.72a3.256,3.256,0,0,1-3.25-3.25v-16.7a3.248,3.248,0,0,1,3.25-3.24h25.72a3.239,3.239,0,0,1,3.24,3.24v16.7A3.248,3.248,0,0,1,1993.87,6550.6Zm-25.72-21.18a1.229,1.229,0,0,0-1.23,1.23v16.7a1.229,1.229,0,0,0,1.23,1.23h25.72a1.229,1.229,0,0,0,1.23-1.23v-16.7a1.229,1.229,0,0,0-1.23-1.23h-25.72Zm12.86,12.53a3.536,3.536,0,0,1-2.35-.86l-12.75-11.12a1,1,0,1,1,1.32-1.51l12.75,11.12a1.666,1.666,0,0,0,2.05,0l12.73-11.11a1.007,1.007,0,1,1,1.32,1.52l-12.73,11.1A3.529,3.529,0,0,1,1981.01,6541.95Zm0,27.06a30.005,30.005,0,1,1,30-30.01,29.737,29.737,0,0,1-2.67,12.38,1,1,0,1,1-1.83-.82,28,28,0,1,0-25.5,16.43A1.01,1.01,0,0,1,1981.01,6569.01Zm0,0a1.01,1.01,0,1,1,0-2.02c8.62,0,13.29-3.43,14.77-6.64a5.116,5.116,0,0,0-.66-5.66,1,1,0,0,1,1.53-1.3,7.067,7.067,0,0,1,.96,7.81C1995.86,6564.97,1990.58,6569.01,1981.01,6569.01Z" transform="translate(-1951 -6509)"/>
</svg>
