<svg xmlns="http://www.w3.org/2000/svg" width="52" height="52" viewBox="0 0 52 52">
  <defs>
    <style>
      .cls-1 {
        fill: #1c3647;
        fill-rule: evenodd;
      }
    </style>
  </defs>
  <path id="Фигура_95_copy_3" data-name="Фигура 95 copy 3" class="cls-1" d="M2148.33,235.037c-3.36,0-9.62-2.322-16.16-8.868a34.284,34.284,0,0,1-7.88-11.517c-1.35-3.568-1.32-6.412.07-7.8,0.18-.18.36-0.375,0.55-0.575,1.12-1.176,2.52-2.641,4.34-2.641,1.36,0,2.65.787,3.95,2.405,3.44,4.28,2.2,6.1.07,8.195l-0.32.318c-0.01.009-.96,1.085,4.39,6.443,4.05,4.05,5.67,4.489,6.17,4.489a0.336,0.336,0,0,0,.28-0.092l0.32-.326c1.01-1.024,2.05-2.082,3.65-2.082,1.27,0,2.71.686,4.54,2.156,1.56,1.256,2.35,2.5,2.4,3.809,0.08,1.894-1.43,3.327-2.64,4.477-0.2.19-.39,0.372-0.57,0.553A4.368,4.368,0,0,1,2148.33,235.037Zm-19.08-29.659c-1.08,0-2.14,1.115-3.07,2.1-0.2.212-.4,0.416-0.59,0.608-0.69.693-.86,2.8,0.33,5.952a32.421,32.421,0,0,0,7.48,10.9c5.78,5.772,11.66,8.356,14.93,8.356a2.758,2.758,0,0,0,1.92-.546c0.2-.19.4-0.385,0.61-0.583,1.01-.956,2.15-2.038,2.1-3.144a3.854,3.854,0,0,0-1.75-2.518c-1.48-1.194-2.61-1.771-3.45-1.771s-1.42.563-2.41,1.56l-0.33.337a2.07,2.07,0,0,1-1.51.6h0c-1.03,0-2.92-.518-7.4-5-4.6-4.6-5.96-7.349-4.4-8.911l0.33-.328c1.73-1.7,2.52-2.476-.2-5.858C2130.9,205.967,2130.03,205.378,2129.25,205.378Zm9.75,39.959a26,26,0,1,1,26.01-26,25.719,25.719,0,0,1-2.32,10.734,0.867,0.867,0,0,1-1.15.434,0.881,0.881,0,0,1-.44-1.154,23.938,23.938,0,0,0,2.16-10.014A24.255,24.255,0,1,0,2139,243.591,0.873,0.873,0,1,1,2139,245.337Zm0,0a0.873,0.873,0,0,1,0-1.746c7.48,0,11.52-2.971,12.81-5.751a4.448,4.448,0,0,0-.58-4.907,0.875,0.875,0,0,1,1.34-1.126,6.119,6.119,0,0,1,.82,6.766C2151.88,241.843,2147.3,245.337,2139,245.337Z" transform="translate(-2113 -193.344)"/>
</svg>
