<svg xmlns="http://www.w3.org/2000/svg" width="60" height="60" viewBox="0 0 60 60">
  <defs>
    <style>
      .cls-1 {
        fill: #fff;
        fill-rule: evenodd;
      }
    </style>
  </defs>
  <path id="Фигура_95" data-name="Фигура 95" class="cls-1" d="M582.765,6557.12c-3.88,0-11.093-2.68-18.644-10.23a39.591,39.591,0,0,1-9.1-13.29c-1.552-4.12-1.523-7.4.083-9.01,0.209-.2.421-0.43,0.641-0.66,1.291-1.36,2.9-3.05,5-3.05,1.563,0,3.052.91,4.553,2.78,3.972,4.94,2.539,7.04.08,9.46l-0.37.36c-0.012.01-1.11,1.25,5.072,7.44,4.673,4.67,6.535,5.17,7.118,5.17a0.379,0.379,0,0,0,.32-0.1l0.373-.38c1.164-1.18,2.368-2.4,4.207-2.4,1.466,0,3.132.79,5.242,2.49,1.8,1.45,2.709,2.88,2.772,4.39,0.09,2.19-1.651,3.84-3.049,5.17-0.229.22-.453,0.43-0.662,0.64A5.023,5.023,0,0,1,582.765,6557.12Zm-22.011-34.22c-1.244,0-2.467,1.28-3.547,2.42-0.23.24-.455,0.48-0.675,0.7-0.8.8-.994,3.23,0.376,6.87a37.418,37.418,0,0,0,8.636,12.57c6.66,6.66,13.449,9.64,17.221,9.64a3.241,3.241,0,0,0,2.223-.62c0.22-.22.456-0.45,0.7-0.68,1.161-1.1,2.477-2.35,2.423-3.62-0.036-.88-0.716-1.86-2.02-2.91-1.711-1.38-3.013-2.04-3.982-2.04-0.951,0-1.639.65-2.773,1.8l-0.383.39a2.421,2.421,0,0,1-1.744.69h0c-1.191,0-3.373-.6-8.541-5.77-5.309-5.31-6.873-8.48-5.073-10.28l0.382-.38c1.992-1.96,2.9-2.86-.238-6.76C562.659,6523.58,561.655,6522.9,560.754,6522.9Zm11.252,46.11a30.005,30.005,0,1,1,30-30.01,29.734,29.734,0,0,1-2.667,12.38,1.017,1.017,0,0,1-1.333.51,1.006,1.006,0,0,1-.5-1.33,28,28,0,1,0-25.5,16.43A1.01,1.01,0,0,1,572.006,6569.01Zm0,0a1.01,1.01,0,0,1,0-2.02c8.626,0,13.291-3.43,14.778-6.64a5.118,5.118,0,0,0-.666-5.66,1.006,1.006,0,0,1,1.536-1.3,7.061,7.061,0,0,1,.956,7.81C586.861,6564.97,581.58,6569.01,572.006,6569.01Z" transform="translate(-542 -6509)"/>
</svg>
