<svg xmlns="http://www.w3.org/2000/svg" width="62" height="62" viewBox="0 0 62 62">
  <defs>
    <style>
      .cls-1 {
        fill: #fff;
        fill-rule: evenodd;
      }
    </style>
  </defs>
  <path id="Фигура_98" data-name="Фигура 98" class="cls-1" d="M1124.99,6571.01a30.983,30.983,0,1,1,28.25-18.2,1.043,1.043,0,0,1-1.9-.86,28.656,28.656,0,0,0,2.58-11.94,28.925,28.925,0,1,0-28.93,28.92A1.04,1.04,0,1,1,1124.99,6571.01Zm0,0a1.04,1.04,0,1,1,0-2.08c8.78,0,13.61-3.47,15.21-6.72a5.335,5.335,0,0,0-.46-5.79,45.8,45.8,0,0,0-3.3-3.91,1.04,1.04,0,1,1,1.51-1.43,46.883,46.883,0,0,1,3.4,4.03,7.345,7.345,0,0,1,.71,8.02C1140.2,6566.94,1134.73,6571.01,1124.99,6571.01Zm0-29.04a6.945,6.945,0,1,1,6.95-6.95A6.952,6.952,0,0,1,1124.99,6541.97Zm0-11.82a4.87,4.87,0,1,0,4.87,4.87A4.874,4.874,0,0,0,1124.99,6530.15Zm0,29.26a1.043,1.043,0,0,1-.79-0.37c-0.56-.67-13.62-16.34-13.62-24.02a14.41,14.41,0,0,1,28.82,0c0,7.68-13.05,23.35-13.61,24.02A1.064,1.064,0,0,1,1124.99,6559.41Zm0-36.72a12.342,12.342,0,0,0-12.33,12.33c0,5.92,9.49,18.16,12.33,21.7,2.85-3.54,12.33-15.78,12.33-21.7A12.342,12.342,0,0,0,1124.99,6522.69Z" transform="translate(-1094 -6509)"/>
</svg>
