<svg xmlns="http://www.w3.org/2000/svg" width="52" height="52" viewBox="0 0 52 52">
  <defs>
    <style>
      .cls-1 {
        fill: #1c3647;
        fill-rule: evenodd;
      }
    </style>
  </defs>
  <path id="Фигура_98_copy_2" data-name="Фигура 98 copy 2" class="cls-1" d="M1341.44,245.346a25.981,25.981,0,1,1,23.68-15.271,0.879,0.879,0,0,1-1.16.435,0.87,0.87,0,0,1-.43-1.155,24.25,24.25,0,1,0-22.09,14.245A0.873,0.873,0,0,1,1341.44,245.346Zm0,0a0.873,0.873,0,0,1,0-1.746c7.36,0,11.41-2.911,12.74-5.636a4.479,4.479,0,0,0-.38-4.855,41.809,41.809,0,0,0-2.76-3.281,0.871,0.871,0,1,1,1.26-1.2,40.658,40.658,0,0,1,2.85,3.387,6.164,6.164,0,0,1,.6,6.721C1354.18,241.929,1349.6,245.346,1341.44,245.346Zm0-24.361a5.827,5.827,0,1,1,5.82-5.827A5.839,5.839,0,0,1,1341.44,220.985Zm0-9.908a4.081,4.081,0,1,0,4.08,4.081A4.085,4.085,0,0,0,1341.44,211.077Zm0,24.537a0.869,0.869,0,0,1-.67-0.312c-0.47-.558-11.41-13.707-11.41-20.144a12.08,12.08,0,1,1,24.16,0c0,6.437-10.95,19.586-11.42,20.144A0.864,0.864,0,0,1,1341.44,235.614Zm0-30.8a10.354,10.354,0,0,0-10.34,10.343c0,4.961,7.95,15.232,10.34,18.2,2.38-2.971,10.33-13.242,10.33-18.2A10.345,10.345,0,0,0,1341.44,204.815Z" transform="translate(-1315.44 -193.344)"/>
</svg>
