<svg xmlns="http://www.w3.org/2000/svg" width="35.75" height="25.406" viewBox="0 0 35.75 25.406">
  <defs>
    <style>
      .cls-1 {
        fill: #26333c;
        fill-rule: evenodd;
      }
    </style>
  </defs>
  <path id="Shape_5_copy_2" data-name="Shape 5 copy 2" class="cls-1" d="M2687.73,228.464l-10.29-8.371,10.73-12.322a1.347,1.347,0,0,0-.19-1.949,1.507,1.507,0,0,0-2.05.181l-11.65,13.374a1.626,1.626,0,0,0-.15.213v-12.7a1.417,1.417,0,0,0-1.45-1.384h-1.85a1.386,1.386,0,1,0,0,2.769h0.39v17.2l-15.87-19.438a1.51,1.51,0,0,0-2.05-.2,1.345,1.345,0,0,0-.25,1.9l18.48,22.627a1.5,1.5,0,0,0,2.04.243,1.371,1.371,0,0,0,.56-1.092v-8.588a1.325,1.325,0,0,0,.33.384l11.38,9.255a1.5,1.5,0,0,0,2.04-.147c0.01,0,.01,0,0.01,0a1.34,1.34,0,0,0-.16-1.951h0Z" transform="translate(-2652.78 -205.5)"/>
</svg>
