<svg xmlns="http://www.w3.org/2000/svg" width="47" height="32.35" viewBox="0 0 47 32.35">
  <defs>
    <style>
      .cls-1 {
        fill: #fff;
        fill-rule: evenodd;
      }
    </style>
  </defs>
  <path id="Shape_5_copy_2" data-name="Shape 5 copy 2" class="cls-1" d="M2562.98,6552.57l-13.53-10.66,14.11-15.69a1.666,1.666,0,0,0-.26-2.48,2.023,2.023,0,0,0-2.69.23L2545.3,6541a1.35,1.35,0,0,0-.2.27V6525.1a1.845,1.845,0,0,0-1.91-1.77h-2.43a1.771,1.771,0,1,0,0,3.53h0.51v21.91l-20.86-24.76a2.035,2.035,0,0,0-2.69-.25,1.668,1.668,0,0,0-.33,2.42l24.29,28.81a2.015,2.015,0,0,0,2.68.31,1.705,1.705,0,0,0,.74-1.39v-10.94a1.671,1.671,0,0,0,.43.49l14.96,11.79a2.021,2.021,0,0,0,2.69-.19c0.01,0,.01,0,0.01-0.01a1.663,1.663,0,0,0-.21-2.48h0Z" transform="translate(-2517 -6523.34)"/>
</svg>
