<svg xmlns="http://www.w3.org/2000/svg" width="38" height="38" viewBox="0 0 38 38">
  <defs>
    <style>
      .cls-1 {
        fill: #26333c;
        fill-rule: evenodd;
      }
    </style>
  </defs>
  <path id="Shape_64_copy" data-name="Shape 64 copy" class="cls-1" d="M2935.6,204.114a18.3,18.3,0,0,0-13.03-5.4h0a18.435,18.435,0,0,0-18.43,18.433,18.519,18.519,0,0,0,2.05,8.455l-3.1,8.852a1.69,1.69,0,0,0,.41,1.771,1.668,1.668,0,0,0,1.2.5,1.7,1.7,0,0,0,.57-0.1l8.85-3.1A18.433,18.433,0,0,0,2935.6,204.114Zm-1.57,24.493a16.1,16.1,0,0,1-11.46,4.746,16.26,16.26,0,0,1-7.61-1.894,1.714,1.714,0,0,0-1.37-.106l-8.04,2.814,2.82-8.042a1.684,1.684,0,0,0-.11-1.37,16.2,16.2,0,0,1,14.31-23.81h0A16.208,16.208,0,0,1,2934.03,228.607Zm-4.61-9.811a2.179,2.179,0,0,0-3.08,0l-0.92.926A13.414,13.414,0,0,1,2920,214.3l0.92-.927a2.173,2.173,0,0,0,0-3.075l-2.5-2.5a2.17,2.17,0,0,0-3.07,0l-2,2c-1.15,1.145-1.2,3.114-.16,5.544a24.331,24.331,0,0,0,11.19,11.188,8.012,8.012,0,0,0,3.11.742,3.312,3.312,0,0,0,2.43-.9l2-2h0a2.168,2.168,0,0,0,0-3.076Zm-1.08,6c-0.32.327-1.33,0.441-3.09-.312a22.126,22.126,0,0,1-10.01-10.017c-0.76-1.759-.64-2.763-0.31-3.09l1.96-1.961,2.42,2.422L2918.15,213a1.706,1.706,0,0,0-.32,1.982,15.767,15.767,0,0,0,6.91,6.907,1.7,1.7,0,0,0,1.98-.315l1.16-1.161,2.42,2.423Z" transform="translate(-2903 -198.719)"/>
</svg>
