<svg xmlns="http://www.w3.org/2000/svg" width="45" height="45" viewBox="0 0 45 45">
  <defs>
    <style>
      .cls-1 {
        fill: #fff;
        fill-rule: evenodd;
      }
    </style>
  </defs>
  <path id="Shape_64_copy_2" data-name="Shape 64 copy 2" class="cls-1" d="M2914.61,6524.39a21.7,21.7,0,0,0-15.44-6.39h0a21.83,21.83,0,0,0-19.39,31.84l-3.67,10.48a2,2,0,0,0,.48,2.1,2.041,2.041,0,0,0,1.42.59,1.933,1.933,0,0,0,.67-0.12l10.48-3.66a21.832,21.832,0,0,0,31.84-19.41A21.679,21.679,0,0,0,2914.61,6524.39Zm-1.87,29a19.2,19.2,0,0,1-22.57,3.38,2,2,0,0,0-1.62-.12l-9.52,3.33,3.33-9.53a2.037,2.037,0,0,0-.13-1.62,19.19,19.19,0,0,1,16.94-28.19h0A19.184,19.184,0,0,1,2912.74,6553.39Zm-5.45-11.61a2.577,2.577,0,0,0-3.65,0l-1.09,1.09a15.875,15.875,0,0,1-6.42-6.42l1.09-1.1a2.565,2.565,0,0,0,0-3.64l-2.95-2.96a2.6,2.6,0,0,0-3.65,0l-2.36,2.37c-1.36,1.36-1.43,3.69-.19,6.57a28.7,28.7,0,0,0,13.24,13.24,9.5,9.5,0,0,0,3.69.88,3.886,3.886,0,0,0,2.88-1.07l2.36-2.36h0a2.567,2.567,0,0,0,.76-1.82,2.532,2.532,0,0,0-.76-1.82Zm-1.28,7.1c-0.39.39-1.58,0.52-3.66-.37a26.32,26.32,0,0,1-11.86-11.86c-0.89-2.09-.75-3.28-0.37-3.66l2.32-2.32,2.87,2.86-1.37,1.38a2.006,2.006,0,0,0-.37,2.34,18.589,18.589,0,0,0,8.17,8.19,2.036,2.036,0,0,0,2.35-.38l1.37-1.37,2.87,2.87Z" transform="translate(-2876 -6518)"/>
</svg>
